<?xml version="1.0" encoding="UTF-8" standalone="no"?>
<!DOCTYPE svg PUBLIC "-//W3C//DTD SVG 1.1//EN"
 "http://www.w3.org/Graphics/SVG/1.1/DTD/svg11.dtd">
<!-- Generated by graphviz version 14.0.2 (20251019.1705)
 -->
<!-- Title: G Pages: 1 -->
<svg width="109pt" height="254pt"
 viewBox="0.00 0.00 109.00 254.00" xmlns="http://www.w3.org/2000/svg" xmlns:xlink="http://www.w3.org/1999/xlink">
<g id="graph0" class="graph" transform="scale(1 1) rotate(0) translate(4 249.95)">
<title>G</title>
<polygon fill="white" stroke="none" points="-4,4 -4,-249.95 105.12,-249.95 105.12,4 -4,4"/>
<!-- seed -->
<g id="node1" class="node">
<title>seed</title>
<ellipse fill="none" stroke="black" cx="50.56" cy="-216.96" rx="50.56" ry="28.99"/>
<text xml:space="preserve" text-anchor="middle" x="50.56" y="-220.16" font-family="Times New Roman,serif" font-size="14.00">Form_1</text>
<text xml:space="preserve" text-anchor="middle" x="50.56" y="-203.66" font-family="Times New Roman,serif" font-size="14.00">emit_seed</text>
</g>
<!-- amplifier -->
<g id="node2" class="node">
<title>amplifier</title>
<ellipse fill="none" stroke="black" cx="50.56" cy="-122.97" rx="42.07" ry="28.99"/>
<text xml:space="preserve" text-anchor="middle" x="50.56" y="-126.17" font-family="Times New Roman,serif" font-size="14.00">Form_2</text>
<text xml:space="preserve" text-anchor="middle" x="50.56" y="-109.67" font-family="Times New Roman,serif" font-size="14.00">amplify</text>
</g>
<!-- seed&#45;&gt;amplifier -->
<g id="edge1" class="edge">
<title>seed&#45;&gt;amplifier</title>
<path fill="none" stroke="black" d="M50.56,-187.61C50.56,-180.09 50.56,-171.83 50.56,-163.82"/>
<polygon fill="black" stroke="black" points="54.06,-163.9 50.56,-153.9 47.06,-163.9 54.06,-163.9"/>
</g>
<!-- collector -->
<g id="node3" class="node">
<title>collector</title>
<ellipse fill="none" stroke="black" cx="50.56" cy="-28.99" rx="42.07" ry="28.99"/>
<text xml:space="preserve" text-anchor="middle" x="50.56" y="-32.19" font-family="Times New Roman,serif" font-size="14.00">Form_3</text>
<text xml:space="preserve" text-anchor="middle" x="50.56" y="-15.69" font-family="Times New Roman,serif" font-size="14.00">collect</text>
</g>
<!-- amplifier&#45;&gt;collector -->
<g id="edge2" class="edge">
<title>amplifier&#45;&gt;collector</title>
<path fill="none" stroke="black" d="M50.56,-93.63C50.56,-86.11 50.56,-77.85 50.56,-69.84"/>
<polygon fill="black" stroke="black" points="54.06,-69.92 50.56,-59.92 47.06,-69.92 54.06,-69.92"/>
</g>
</g>
</svg>
